<?xml version="1.0" encoding="UTF-8" standalone="no"?>
<!DOCTYPE svg PUBLIC "-//W3C//DTD SVG 1.1//EN" "http://www.w3.org/Graphics/SVG/1.1/DTD/svg11.dtd">
<svg width="100%" height="100%" viewBox="0 0 1312 449" version="1.1" xmlns="http://www.w3.org/2000/svg" xmlns:xlink="http://www.w3.org/1999/xlink" xml:space="preserve" xmlns:serif="http://www.serif.com/" style="fill-rule:evenodd;clip-rule:evenodd;stroke-linejoin:round;stroke-miterlimit:2;">
    <g transform="matrix(1,0,0,1,-44.1354,-4822.22)">
        <g transform="matrix(0.60009,0,0,0.538746,471.357,2277.14)">
            <g id="green" transform="matrix(1.66642,0,0,1.85616,-787.13,2759.85)">
                <g transform="matrix(2.42467,0,0,2.42467,-39.7368,973.356)">
                    <clipPath id="_clip1">
                        <path d="M233.023,85.341C238.943,78.308 249.712,78.221 255.751,85.081L255.976,85.341L306.476,145.341C311.81,151.68 310.997,161.142 304.659,166.477C298.411,171.735 289.128,171.02 283.754,164.928L283.523,164.66L244.5,118.294L205.476,164.66C200.217,170.907 190.948,171.787 184.614,166.702L184.34,166.477C178.093,161.218 177.213,151.949 182.299,145.615L182.523,145.341L233.023,85.341Z"/>
                    </clipPath>
                    <g clip-path="url(#_clip1)">
                        <rect x="173.999" y="75" width="141.001" height="100.001" style="fill:rgb(130,255,184);fill-rule:nonzero;"/>
                    </g>
                </g>
                <g transform="matrix(2.42467,0,0,2.42467,-39.7368,973.356)">
                    <clipPath id="_clip2">
                        <path d="M320,96C320,84.487 332.41,77.309 342.36,82.93L342.661,83.104L421,129.641L421,96C421,87.821 427.546,81.171 435.686,81.004L436,81C444.179,81 450.829,87.547 450.996,95.687L451,96L451,156C451,167.514 438.589,174.692 428.639,169.071L428.338,168.897L350,122.359L350,156C350,164.18 343.453,170.83 335.313,170.997L335,171C326.82,171 320.17,164.454 320.003,156.314L320,156L320,96Z"/>
                    </clipPath>
                    <g clip-path="url(#_clip2)">
                        <rect x="315" y="75.978" width="141" height="100.045" style="fill:rgb(130,255,184);fill-rule:nonzero;"/>
                    </g>
                </g>
                <g transform="matrix(2.42467,0,0,2.42467,-39.7368,973.356)">
                    <clipPath id="_clip3">
                        <path d="M534.999,39.999C531.86,44.178 530,49.372 530,55C530,60.629 531.859,65.822 534.999,70.001L509.999,70L510,155C510,163.285 503.284,170 495,170C486.82,170 480.17,163.454 480.003,155.314L480,155L479.999,70L70,70L70,90L145,90C158.669,90 169.775,100.971 169.996,114.587L170,115L170,145C170,158.67 159.029,169.776 145.413,169.997L145,170L55,170C46.715,170 40,163.285 40,155C40,146.821 46.546,140.171 54.686,140.004L55,140L140,140L140,120L65,120C51.33,120 40.224,109.03 40,95.414L40,65C40,51.331 50.97,40.225 64.586,40.004L65,39.999L534.999,39.999Z"/>
                    </clipPath>
                    <g clip-path="url(#_clip3)">
                        <rect x="35" y="34.999" width="504.999" height="140.001" style="fill:rgb(130,255,184);fill-rule:nonzero;"/>
                    </g>
                </g>
                <g transform="matrix(2.42467,0,0,2.42467,-39.7368,973.356)">
                    <clipPath id="_clip4">
                        <path d="M555,80C563.179,80 569.829,86.547 569.996,94.687L570,95L570,155C570,163.285 563.284,170 555,170C546.82,170 540.17,163.454 540.003,155.314L540,155L540,95C540,86.716 546.715,80 555,80Z"/>
                    </clipPath>
                    <g clip-path="url(#_clip4)">
                        <rect x="535" y="75" width="40" height="100" style="fill:rgb(130,255,184);fill-rule:nonzero;"/>
                    </g>
                </g>
            </g>
        </g>
        <g transform="matrix(0.60009,0,0,0.538746,471.357,2277.14)">
            <g transform="matrix(4.04051,0,0,4.50058,-853.348,4566.55)">
                <clipPath id="_clip5">
                    <path d="M54,215C57.869,215 61.17,214.05 63.902,212.15C66.634,210.25 68,207.961 68,205.282L68,203.469L63.033,205.085L63.033,205.347C63.033,207.094 62.143,208.58 60.363,209.803C58.583,211.04 56.462,211.659 54,211.659C51.495,211.659 49.364,211.04 47.605,209.803C45.846,208.565 44.966,207.08 44.966,205.347L44.966,191.654C44.966,189.907 45.846,188.418 47.605,187.187C49.364,185.957 51.495,185.342 54,185.342C56.462,185.342 58.583,185.961 60.363,187.198C62.143,188.436 63.033,189.921 63.033,191.654L63.033,193.51L68,191.916L68,191.719C68,189.069 66.634,186.783 63.902,184.862C61.212,182.954 57.911,182 54,182C50.13,182 46.829,182.951 44.097,184.851C41.365,186.751 40,189.04 40,191.719L40,205.282C40,207.961 41.365,210.254 44.097,212.161C46.808,214.054 50.109,215 54,215ZM110,215C113.869,215 117.17,214.05 119.902,212.15C122.634,210.25 124,207.961 124,205.282L124,191.719C124,189.04 122.634,186.751 119.902,184.851C117.17,182.951 113.869,182 110,182C106.13,182 102.829,182.951 100.097,184.851C97.365,186.751 96,189.04 96,191.719L96,205.282C96,207.961 97.365,210.254 100.097,212.161C102.808,214.054 106.109,215 110,215ZM110,212C107.505,212 105.381,211.366 103.628,210.096C101.876,208.826 101,207.303 101,205.525L101,191.476C101,189.683 101.876,188.156 103.628,186.894C105.381,185.632 107.505,185 110,185C112.453,185 114.567,185.635 116.34,186.905C118.092,188.16 118.979,189.683 119,191.476L119,205.525C118.979,207.318 118.092,208.841 116.34,210.096C114.567,211.366 112.453,212 110,212ZM175.033,215L180,213.472L180,191.719C180,189.04 178.634,186.751 175.902,184.851C173.17,182.951 169.869,182 166,182C162.13,182 158.829,182.951 156.097,184.851C153.365,186.751 152,189.04 152,191.719L152,215L156.966,213.472L156.966,191.588C156.966,189.885 157.846,188.421 159.605,187.198C161.385,185.961 163.516,185.342 166,185.342C168.462,185.342 170.583,185.961 172.363,187.198C174.122,188.421 175.012,189.907 175.033,191.654L175.033,215ZM222.53,215C226.29,215 229.48,214.054 232.1,212.161C234.7,210.283 236,207.961 236,205.194L236,205.129C236,202.421 234.68,200.135 232.04,198.271C229.56,196.524 226.37,195.49 222.47,195.17C220.09,194.981 218.3,194.449 217.1,193.576C215.82,192.644 215.18,191.53 215.18,190.234C215.18,188.938 215.82,187.817 217.1,186.871C218.34,185.968 219.85,185.517 221.63,185.517C223.41,185.517 224.95,185.983 226.25,186.914C227.49,187.803 228.13,188.924 228.17,190.278L228.17,192.003L232.97,190.431L232.97,190.212C232.97,187.97 231.86,186.034 229.64,184.403C227.46,182.801 224.79,182 221.63,182C218.51,182 215.85,182.801 213.65,184.403C211.45,185.99 210.35,187.934 210.35,190.234C210.35,192.52 211.47,194.471 213.71,196.087C215.87,197.66 218.85,198.555 222.65,198.773C224.87,198.89 226.92,199.596 228.8,200.892C230.44,202.028 231.26,203.505 231.26,205.325C231.26,207.058 230.41,208.55 228.71,209.803C227.01,211.04 224.95,211.659 222.53,211.659C220.15,211.659 218.1,211.04 216.38,209.803C214.66,208.58 213.8,207.094 213.8,205.347L213.8,203.469L209,204.998L209,205.282C209,207.917 210.32,210.21 212.96,212.161C215.54,214.054 218.73,215 222.53,215ZM278,215C281.869,215 285.17,214.05 287.902,212.15C290.634,210.25 292,207.961 292,205.282L292,182L287.033,183.529L287.033,205.413C287.033,207.116 286.153,208.58 284.394,209.803C282.614,211.04 280.483,211.659 278,211.659C275.537,211.659 273.416,211.04 271.636,209.803C269.877,208.58 268.987,207.094 268.966,205.347L268.966,182L264,183.529L264,205.282C264,207.961 265.365,210.25 268.097,212.15C270.829,214.05 274.13,215 278,215ZM344.832,214L347,210.567L324.954,210.567L324.954,182L320,183.503L320,214L344.832,214ZM386.584,215L391.415,213.498L391.415,186.434L402.886,186.434L405,183L375.113,183L373,186.434L386.584,186.434L386.584,215ZM455.832,215L458,211.52L446.977,211.52L446.977,186.481L455.832,186.481L458,183L433.167,183L431,186.481L442.022,186.481L442.022,211.52L433.167,211.52L431,215L455.832,215ZM510.033,215L515,213.472L515,191.719C515,189.04 513.634,186.751 510.902,184.851C508.17,182.951 504.869,182 501,182C497.13,182 493.829,182.951 491.097,184.851C488.365,186.751 487,189.04 487,191.719L487,215L491.966,213.472L491.966,191.588C491.966,189.885 492.846,188.421 494.605,187.198C496.385,185.961 498.516,185.342 501,185.342C503.462,185.342 505.583,185.961 507.363,187.198C509.122,188.421 510.012,189.907 510.033,191.654L510.033,215ZM557,215C560.869,215 564.17,214.05 566.902,212.15C569.634,210.25 571,207.961 571,205.282L571,196.764L558.986,196.764L556.813,200.259L566.033,200.259L566.033,205.347C566.033,207.124 565.143,208.609 563.363,209.803C561.501,211.04 559.379,211.659 557,211.659C554.495,211.659 552.364,211.04 550.605,209.803C548.846,208.565 547.966,207.08 547.966,205.347L547.966,191.654C547.966,189.907 548.846,188.418 550.605,187.187C552.364,185.957 554.495,185.342 557,185.342C559.462,185.342 561.583,185.961 563.363,187.198C565.143,188.436 566.033,189.921 566.033,191.654L566.033,193.51L571,191.916L571,191.719C571,189.069 569.634,186.783 566.902,184.862C564.212,182.954 560.911,182 557,182C553.13,182 549.829,182.951 547.097,184.851C544.365,186.751 543,189.04 543,191.719L543,205.282C543,207.961 544.365,210.254 547.097,212.161C549.808,214.054 553.109,215 557,215Z"/>
                </clipPath>
                <g clip-path="url(#_clip5)">
                    <rect x="35" y="177" width="541" height="43" style="fill:rgb(181,115,255);fill-rule:nonzero;"/>
                </g>
            </g>
        </g>
        <g transform="matrix(0.60009,0,0,0.538746,471.357,2277.14)">
            <g transform="matrix(4.04051,0,0,4.50058,-853.348,4566.55)">
                <clipPath id="_clip6">
                    <path d="M555,40C563.284,40 570,46.716 570,55C570,63.285 563.284,70 555,70C546.715,70 540,63.285 540,55C540,46.716 546.715,40 555,40Z"/>
                </clipPath>
                <g clip-path="url(#_clip6)">
                    <rect x="535" y="35" width="40" height="40" style="fill:rgb(181,115,255);fill-rule:nonzero;"/>
                </g>
            </g>
        </g>
    </g>
</svg>
